<?xml version="1.0" encoding="utf-8"?>
<!-- Generator: Adobe Illustrator 23.0.4, SVG Export Plug-In . SVG Version: 6.00 Build 0)  -->
<svg version="1.1" xmlns="http://www.w3.org/2000/svg" xmlns:xlink="http://www.w3.org/1999/xlink" x="0px" y="0px"
	 viewBox="0 0 501.09 95.91" style="enable-background:new 0 0 501.09 95.91;" xml:space="preserve">
<style type="text/css">
	.st0{fill:#020203;}
	.st1{fill:#E74136;}
	.st2{fill:#FFD523;}
	.st3{fill:#FFFFFF;}
</style>
<g id="Capa_1">
</g>
<g id="Capa_3">
</g>
<g id="Modo_de_aislamiento">
	<rect x="0.21" y="0.28" class="st0" width="190.31" height="95.98"/>
	<rect x="191.66" y="0.28" class="st0" width="310.65" height="95.98"/>
	<g>
		<path class="st1" d="M72.9,59.2c-3.91,0-8.54-4.19-8.54-8.19c0-3.85,5.73-9.53,9.59-9.53c3.66,0,8.48,3.47,8.48,7.42
			C82.43,53.12,77.33,59.2,72.9,59.2z"/>
		<path class="st2" d="M147.55,56.79c-3.91,0-8.53-4.15-8.53-8.14c0-3.9,5.73-9.58,9.53-9.58c3.71,0,8.53,3.46,8.53,7.41
			C157.08,50.77,151.98,56.79,147.55,56.79z"/>
		<path class="st3" d="M62.4,30.74c-0.53,0-8.09-0.2-16.03,0.28c-6.94,0.48-14.12,1.64-17.48,2.26c-1.49,0.24-1.94,1.98-1.94,3.04
			c0.06,1.06,0.63,2.84,2.42,2.6c2.35-0.29,10.3-1.58,12.32-1.24c0.3,0.04,0.63,0.29,0.48,0.87c-0.57,2.21-5.38,18.2-6.54,23.54
			c-0.96,4.24,7.85,5.25,9.15,0.05c0.49-1.97,4.43-22.44,4.82-23.69c0.14-0.53,0.38-1.54,1.11-1.59c3.04-0.09,9.34-0.43,12.43-1.01
			C65.87,35.3,67.07,30.74,62.4,30.74"/>
		<path class="st3" d="M134.54,29.09c-2.36-0.15-11.66,0.48-21.77,1.21c-4.33,0.34-8.62,0.63-12.38,0.92
			c-3.71,0.34-6.93,0.72-9.14,1.35c-2.02,0.57-3.14,2.07-3.14,3.56c-0.05,4.82,7.76,2.03,10.27,1.88c1.05-0.05,1.68-0.1,1.34,1.25
			c-0.53,2.21-3.37,17.38-4.58,22.73c-1.06,4.96,7.32,4.24,8.58-0.53c0.39-1.45,0.97-6.16,1.54-10.64c0.54-4.43,1.01-8.62,1.16-9.3
			c0.82-4.29,1.15-4.86,6.31-5.15c3.32-0.2,5.78-0.48,4.53,3.85c-1.78,6.36-4.14,13.2-4.92,19.74c-0.62,5.01,5.54,4.82,7.27,2.75
			c0.82-1.01,2.12-7.32,3.22-13.05c1.11-5.88,2.13-11.7,2.32-12.33c0.19-0.58,0.92-1.64,1.68-1.74c2.98-0.29,5.82,0.1,8.81-0.67
			C137.91,34.35,139.74,29.39,134.54,29.09"/>
		<path class="st3" d="M148.95,32.51c-6.65,0-16.62,9.92-16.62,16.66c0,6.93,8.04,14.21,14.84,14.21c7.7,0,16.61-10.55,16.61-17.97
			C163.78,38.54,155.4,32.51,148.95,32.51z M147.55,56.79c-3.91,0-8.53-4.15-8.53-8.14c0-3.9,5.73-9.58,9.53-9.58
			c3.71,0,8.53,3.46,8.53,7.41C157.08,50.77,151.98,56.79,147.55,56.79z"/>
		<path class="st3" d="M74.34,34.87c-6.71,0-16.63,9.92-16.63,16.66c0,6.93,8.01,14.21,14.84,14.21c7.66,0,16.57-10.5,16.57-17.96
			C89.12,40.9,80.75,34.87,74.34,34.87z M72.9,59.2c-3.91,0-8.54-4.19-8.54-8.19c0-3.85,5.73-9.53,9.59-9.53
			c3.66,0,8.48,3.47,8.48,7.42C82.43,53.12,77.33,59.2,72.9,59.2z"/>
	</g>
	<g>
		<g>
			<path class="st2" d="M420.09,53.84h11.03v10.93h-11.03V53.84z"/>
			<path class="st2" d="M432.7,48.23v-0.09c0-9.17,5.99-17.35,16.07-17.35c10.08,0,15.97,8.08,15.97,17.25v0.09
				c0,9.17-5.99,17.35-16.07,17.35C438.59,65.48,432.7,57.4,432.7,48.23z M453.7,48.23v-0.09c0-4.56-2.04-7.7-5.04-7.7
				c-3,0-4.94,3.04-4.94,7.6v0.09c0,4.56,2.04,7.7,5.04,7.7C451.75,55.83,453.7,52.79,453.7,48.23z"/>
		</g>
		<g>
			<path class="st3" d="M373.14,56.47l3.57-4.26c2.28,1.82,4.82,2.78,7.5,2.78c1.72,0,2.64-0.59,2.64-1.59v-0.07
				c0-0.96-0.76-1.49-3.9-2.21c-4.92-1.12-8.72-2.51-8.72-7.27v-0.07c0-4.3,3.4-7.4,8.95-7.4c3.93,0,7,1.06,9.52,3.07l-3.2,4.53
				c-2.11-1.49-4.43-2.28-6.48-2.28c-1.55,0-2.31,0.66-2.31,1.49v0.07c0,1.06,0.79,1.52,4,2.25c5.32,1.16,8.62,2.87,8.62,7.2v0.07
				c0,4.73-3.73,7.53-9.35,7.53C379.88,60.3,375.98,59.01,373.14,56.47z"/>
			<path class="st3" d="M229.24,36.78h9.91c5.85,0,9.61,3.01,9.61,8.13v0.07c0,5.45-4.2,8.33-9.94,8.33h-3.17v6.61h-6.41V36.78z
				 M238.69,48.27c2.28,0,3.67-1.19,3.67-3.01V45.2c0-1.98-1.39-3.04-3.7-3.04h-3.01v6.11H238.69z"/>
			<path class="st3" d="M249.63,36.78h6.44v23.13h-6.44V36.78z"/>
			<path class="st3" d="M257.53,48.41v-0.07c0-6.64,5.35-12.03,12.49-12.03c7.14,0,12.42,5.32,12.42,11.96v0.07
				c0,6.64-5.35,12.03-12.49,12.03S257.53,55.05,257.53,48.41z M275.9,48.41v-0.07c0-3.34-2.41-6.24-5.95-6.24
				c-3.5,0-5.85,2.84-5.85,6.18v0.07c0,3.34,2.41,6.25,5.91,6.25C273.55,54.59,275.9,51.74,275.9,48.41z"/>
			<path class="st3" d="M283.79,36.78h5.98L299.29,49V36.78h6.34v23.13h-5.62l-9.88-12.69v12.69h-6.34V36.78z"/>
			<path class="st3" d="M307.75,36.78h18.6v5.45h-12.26v3.5h11.1v5.06h-11.1v3.67h12.42v5.45h-18.77V36.78z"/>
			<path class="st3" d="M327.81,36.78h10.94c3.54,0,5.98,0.93,7.53,2.51c1.35,1.32,2.05,3.11,2.05,5.39v0.07
				c0,3.54-1.88,5.88-4.76,7.1l5.52,8.06h-7.4l-4.66-7.01h-2.81v7.01h-6.41V36.78z M338.45,47.88c2.18,0,3.44-1.06,3.44-2.74v-0.07
				c0-1.82-1.32-2.74-3.47-2.74h-4.2v5.55H338.45z"/>
			<path class="st3" d="M348.79,48.41v-0.07c0-6.64,5.35-12.03,12.49-12.03c7.14,0,12.42,5.32,12.42,11.96v0.07
				c0,6.64-5.35,12.03-12.49,12.03S348.79,55.05,348.79,48.41z M367.16,48.41v-0.07c0-3.34-2.41-6.24-5.95-6.24
				c-3.5,0-5.85,2.84-5.85,6.18v0.07c0,3.34,2.41,6.25,5.91,6.25C364.81,54.59,367.16,51.74,367.16,48.41z"/>
		</g>
		<path class="st2" d="M410.13,44.68l7.59-5.71v-7.78h-26.01v6.22c0.59,0.35,1.16,0.73,1.7,1.16l0.83,0.66l-0.53,0.75h10.57
			l-7.45,5.9l1.5,5.03h4.79c3,0,4.45,1.06,4.45,2.71v0.1c0,1.6-1.35,2.71-3.87,2.71c-2.8,0-5.46-1.31-7.98-3.67l-1.39,1.43
			c-0.43,2.78-2.11,4.9-4.7,6.11c3.65,3.44,8.41,5.47,14.98,5.47c7.49,0,13.88-4.06,13.88-11.36v-0.1
			C418.49,48.98,415.21,46.03,410.13,44.68z"/>
	</g>
</g>
</svg>
